<svg 
 xmlns="http://www.w3.org/2000/svg"
 xmlns:xlink="http://www.w3.org/1999/xlink"
 width="15px" height="15px">
<path fill-rule="evenodd"  opacity="0.8" fill="rgb(100, 120, 153)"
 d="M8.812,7.582 L14.667,13.273 C14.766,13.370 14.816,13.481 14.816,13.606 C14.816,13.732 14.766,13.843 14.667,13.939 L13.922,14.663 C13.822,14.760 13.708,14.808 13.579,14.808 C13.450,14.808 13.336,14.760 13.236,14.663 L6.294,7.915 C6.194,7.819 6.145,7.708 6.145,7.582 C6.145,7.457 6.194,7.346 6.294,7.249 L13.236,0.502 C13.336,0.405 13.450,0.357 13.579,0.357 C13.708,0.357 13.822,0.405 13.922,0.502 L14.667,1.225 C14.766,1.322 14.816,1.433 14.816,1.558 C14.816,1.684 14.766,1.795 14.667,1.892 L8.812,7.582 ZM3.091,7.582 L8.946,13.273 C9.045,13.370 9.095,13.481 9.095,13.606 C9.095,13.732 9.045,13.843 8.946,13.939 L8.201,14.663 C8.101,14.760 7.987,14.808 7.858,14.808 C7.729,14.808 7.615,14.760 7.515,14.663 L0.573,7.915 C0.473,7.819 0.424,7.708 0.424,7.582 C0.424,7.457 0.473,7.346 0.573,7.249 L7.515,0.502 C7.615,0.405 7.729,0.357 7.858,0.357 C7.987,0.357 8.102,0.405 8.201,0.502 L8.946,1.225 C9.045,1.322 9.095,1.433 9.095,1.558 C9.095,1.684 9.045,1.795 8.946,1.892 L3.091,7.582 Z"/>
</svg>