<svg 
 xmlns="http://www.w3.org/2000/svg"
 xmlns:xlink="http://www.w3.org/1999/xlink"
 width="15px" height="15px">
<path fill-rule="evenodd"  opacity="0.8" fill="rgb(100, 120, 153)"
 d="M14.685,7.751 L7.761,14.510 C7.662,14.606 7.548,14.655 7.419,14.655 C7.290,14.655 7.176,14.607 7.077,14.510 L6.334,13.785 C6.235,13.688 6.186,13.577 6.186,13.451 C6.186,13.325 6.235,13.214 6.334,13.117 L12.174,7.417 L6.335,1.717 C6.236,1.621 6.186,1.509 6.186,1.384 C6.186,1.258 6.236,1.147 6.335,1.050 L7.078,0.325 C7.177,0.228 7.291,0.180 7.419,0.180 C7.548,0.180 7.662,0.228 7.761,0.325 L14.685,7.084 C14.784,7.181 14.834,7.292 14.834,7.417 C14.834,7.543 14.784,7.654 14.685,7.751 ZM9.128,7.417 C9.128,7.543 9.079,7.654 8.980,7.751 L2.055,14.510 C1.957,14.606 1.843,14.655 1.714,14.655 C1.585,14.655 1.471,14.607 1.372,14.510 L0.629,13.785 C0.530,13.688 0.481,13.577 0.481,13.451 C0.481,13.325 0.530,13.214 0.629,13.117 L6.468,7.417 L0.629,1.717 C0.530,1.621 0.481,1.509 0.481,1.384 C0.481,1.258 0.530,1.147 0.629,1.050 L1.372,0.325 C1.471,0.228 1.585,0.180 1.714,0.180 C1.843,0.180 1.957,0.228 2.055,0.325 L8.980,7.084 C9.079,7.181 9.128,7.292 9.128,7.417 Z"/>
</svg>