<svg 
 xmlns="http://www.w3.org/2000/svg"
 xmlns:xlink="http://www.w3.org/1999/xlink"
 width="9px" height="15px">
<path fill-rule="evenodd"  opacity="0.8" fill="rgb(100, 120, 153)"
 d="M0.833,0.975 L0.141,1.651 C0.049,1.741 0.003,1.844 0.003,1.962 C0.003,2.079 0.049,2.182 0.141,2.272 L5.581,7.582 L0.142,12.892 C0.049,12.982 0.003,13.085 0.003,13.202 C0.003,13.319 0.049,13.423 0.142,13.513 L0.834,14.188 C0.926,14.279 1.032,14.324 1.152,14.324 C1.272,14.324 1.378,14.279 1.470,14.188 L7.920,7.893 C8.012,7.803 8.058,7.699 8.058,7.582 C8.058,7.465 8.012,7.361 7.920,7.271 L1.470,0.975 C1.378,0.885 1.272,0.840 1.152,0.840 C1.032,0.840 0.926,0.885 0.833,0.975 Z"/>
</svg>